# xmcd
#
# Track frame offsets: 
#        150
#        31496
#        46326
#        65710
#        78419
#        95964
#        111375
#        125854
#        141869
#        161773
#        190364
#        199792
#        219828
#        238861
#        253755
#
# Disc length: 3607 seconds
#
# Revision: 1
# Processed by: cddbd v1.5.2PL0 Copyright (c) Steve Scherf et al.
# Submitted via: ExactAudioCopy v1.0b1
#
DISCID=ec0e150f
DTITLE=Billy Boy Arnold - Chicago Blues from Islington Mews 1977
DYEAR=1977
DGENRE=Blues
TTITLE0=Dirty Mother Fuyer
TTITLE1=Don't Stay Out All Night
TTITLE2=1-2-99
TTITLE3=Riding The El
TTITLE4=Just Got To Know
TTITLE5=Christmas Time
TTITLE6=I Wish You Would
TTITLE7=Ah'w Baby
TTITLE8=Sweet Miss Bea
TTITLE9=Blue And Lonesome
TTITLE10=Eldorado Cadillac
TTITLE11=Mary Bernice
TTITLE12=It's Great To Be Rich
TTITLE13=Just A Dream
TTITLE14=Catfish
EXTD=YEAR: 1977 ID3G: 0
EXTT0=
EXTT1=
EXTT2=
EXTT3=
EXTT4=
EXTT5=
EXTT6=
EXTT7=
EXTT8=
EXTT9=
EXTT10=
EXTT11=
EXTT12=
EXTT13=
EXTT14=
PLAYORDER=
